<svg xmlns="http://www.w3.org/2000/svg" viewBox="0 0 512 512"><path fill="#fff" d="M0 122.544C0 54.926 54.926 0 122.544 0h266.912C457.074 0 512 54.926 512 122.544v266.912C512 457.074 457.074 512 389.456 512H122.544C54.926 512 0 457.074 0 389.456z"/><path fill="none" stroke="#000" stroke-linecap="round" stroke-linejoin="round" stroke-width="32.2" d="M256 191.6v-64.4h-64.4m-32.2 64.4h193.2c17.784 0 32.2 14.416 32.2 32.2v128.8c0 17.784-14.416 32.2-32.2 32.2H159.4c-17.784 0-32.2-14.416-32.2-32.2V223.8c0-17.784 14.416-32.2 32.2-32.2q0 0 0 0M95 288.2h32.2m257.6 0H417m-112.7-16.1v32.2m-96.6-32.2v32.2"/></svg>