<svg xmlns="http://www.w3.org/2000/svg" viewBox="0 0 512 512" width="512" height="512"><defs></defs><g>
<rect fill="#ffffff" x="0" y="0" width="512" height="512"/>
<g>
	<g>
		<g transform="matrix(11.166668701,0,0,11.166668701,-2608.250521851,-2602.6671875)">
			<path d="M256.5,252 C256.5,252 256.5,248 256.5,248 C256.5,248 252.5,248 252.5,248" fill="none" stroke="#000000" stroke-width="2" stroke-linecap="round" stroke-linejoin="round"/>
		</g>
		<g transform="matrix(11.166668701,0,0,11.166668701,-2608.250521851,-2602.6671875)">
			<path d="M250.5,252 C250.5,252 262.5,252 262.5,252 C263.60457038879395,252 264.5,252.89543056488037 264.5,254 C264.5,254 264.5,262 264.5,262 C264.5,263.10457038879395 263.60457038879395,264 262.5,264 C262.5,264 250.5,264 250.5,264 C249.39543056488037,264 248.5,263.10457038879395 248.5,262 C248.5,262 248.5,254 248.5,254 C248.5,252.89543056488037 249.39543056488037,252 250.5,252 C250.5,252 250.5,252 250.5,252 Z" fill="none" stroke="#000000" stroke-width="2" stroke-linecap="round" stroke-linejoin="round"/>
		</g>
		<g transform="matrix(11.166668701,0,0,11.166668701,-2608.250521851,-2602.6671875)">
			<path d="M246.5,258 C246.5,258 248.5,258 248.5,258" fill="none" stroke="#000000" stroke-width="2" stroke-linecap="round" stroke-linejoin="round"/>
		</g>
		<g transform="matrix(11.166668701,0,0,11.166668701,-2608.250521851,-2602.6671875)">
			<path d="M264.5,258 C264.5,258 266.5,258 266.5,258" fill="none" stroke="#000000" stroke-width="2" stroke-linecap="round" stroke-linejoin="round"/>
		</g>
		<g transform="matrix(11.166668701,0,0,11.166668701,-2608.250521851,-2602.6671875)">
			<path d="M259.5,257 C259.5,257 259.5,259 259.5,259" fill="none" stroke="#000000" stroke-width="2" stroke-linecap="round" stroke-linejoin="round"/>
		</g>
		<g transform="matrix(11.166668701,0,0,11.166668701,-2608.250521851,-2602.6671875)">
			<path d="M253.5,257 C253.5,257 253.5,259 253.5,259" fill="none" stroke="#000000" stroke-width="2" stroke-linecap="round" stroke-linejoin="round"/>
		</g>
	</g>
</g></g></svg>